<svg width="31" height="25" viewBox="0 0 31 25" fill="none" xmlns="http://www.w3.org/2000/svg">
<path d="M31 2.96969C29.86 3.45785 28.6194 3.80918 27.3415 3.94602C28.6682 3.16361 29.6618 1.92753 30.1357 0.469689C28.8907 1.20486 27.5269 1.72037 26.1047 1.99336C25.5103 1.36254 24.7913 0.859999 23.9927 0.517054C23.1941 0.174109 22.3328 -0.00189269 21.4627 1.53491e-05C17.9421 1.53491e-05 15.1107 2.83285 15.1107 6.30918C15.1107 6.79735 15.1703 7.28551 15.2672 7.75519C9.99555 7.48152 5.29396 4.98152 2.16825 1.15386C1.59871 2.11952 1.30026 3.21904 1.30393 4.33803C1.30393 6.52738 2.42531 8.45785 4.13532 9.5932C3.12759 9.55381 2.14345 9.27885 1.26295 8.79069V8.86835C1.26295 11.9342 3.4461 14.4749 6.35573 15.0592C5.80941 15.2 5.24741 15.2721 4.68297 15.2737C4.26944 15.2737 3.87826 15.233 3.48336 15.1775C4.28807 17.6775 6.63141 19.4933 9.42182 19.5525C7.23867 21.25 4.50415 22.2485 1.53491 22.2485C1.00216 22.2485 0.510395 22.23 0 22.1709C2.81649 23.9645 6.15827 25 9.75712 25C21.4403 25 27.8333 15.392 27.8333 7.05253C27.8333 6.77886 27.8333 6.50519 27.8147 6.23152C29.0516 5.33285 30.1357 4.21969 31 2.96969Z" fill="white"/>
</svg>
